<svg xmlns="http://www.w3.org/2000/svg" fill="none" viewBox="0 0 1920 1422" preserveAspectRatio="none">
  <path fill="#0A456F" d="M299.5 1420c-125.881-5.44-315.5-67.5-315.5-67.5V264h2147.5s447.99 1211.76 0 1156c-84.93-10.57-123.23-60.22-208.5-67.5-116.24-9.92-174.35 65.65-291 67.5-125.22 1.99-188.27-66.98-313.5-67.5-127.72-.53-192.29 69.21-320 67.5-120.075-1.61-180.087-61.05-300-67.5-157.805-8.49-241.114 74.32-399 67.5Z"/>
  <path fill="#005792" d="M164.5 1376c-125.881-5.44-315.5-67.5-315.5-67.5V220h2147.5s447.99 1211.76 0 1156c-84.93-10.57-123.23-60.22-208.5-67.5-116.24-9.92-174.35 65.65-291 67.5-125.22 1.99-188.27-66.98-313.5-67.5-127.72-.53-192.294 69.21-320 67.5-120.075-1.61-180.087-61.05-300-67.5-157.805-8.49-241.114 74.32-399 67.5Z"/>
  <path fill="#0A456F" d="M299.5 1.867C173.619 7.307-16 69.367-16 69.367V1157.87h2147.5s447.99-1211.766 0-1156.003c-84.93 10.572-123.23 60.22-208.5 67.5-116.24 9.923-174.35-65.65-291-67.5-125.22-1.985-188.27 66.976-313.5 67.5-127.72.534-192.29-69.214-320-67.5-120.075 1.612-180.087 61.051-300 67.5-157.805 8.487-241.114-74.322-399-67.5Z"/>
  <path fill="#005792" d="M164.5 45.867c-125.881 5.44-315.5 67.5-315.5 67.5V1201.87h2147.5s447.99-1211.766 0-1156.003c-84.93 10.572-123.23 60.22-208.5 67.5-116.24 9.924-174.35-65.65-291-67.5-125.22-1.985-188.27 66.976-313.5 67.5-127.72.534-192.294-69.214-320-67.5-120.075 1.612-180.087 61.051-300 67.5-157.805 8.487-241.114-74.322-399-67.5Z"/>
</svg>