<svg xmlns="http://www.w3.org/2000/svg" fill="none" viewBox="0 0 532 1131">
  <path stroke="#fff" stroke-opacity=".2" stroke-width="2" d="M726.57 1c-120 19-355.3 114.9-336.5 346.5C413.57 637 53.57 453.5 3.57 627s646 190 669.5 503"/>
  <path stroke="#fff" stroke-opacity=".2" stroke-width="2" d="M756.57 1c-120 19-355.3 114.9-336.5 346.5 23.5 289.5-336.5 106-386.5 279.5s646 190 669.5 503"/>
  <path stroke="#fff" stroke-opacity=".2" stroke-width="2" d="M786.57 1c-120 19-355.3 114.9-336.5 346.5 23.5 289.5-336.5 106-386.5 279.5s646 190 669.5 503"/>
  <path stroke="#fff" stroke-opacity=".2" stroke-width="2" d="M816.57 1c-120 19-355.3 114.9-336.5 346.5 23.5 289.5-336.5 106-386.5 279.5s646 190 669.5 503"/>
  <path stroke="#fff" stroke-opacity=".2" stroke-width="2" d="M846.57 1c-120 19-355.3 114.9-336.5 346.5 23.5 289.5-336.5 106-386.5 279.5s646 190 669.5 503"/>
  <path stroke="#fff" stroke-opacity=".2" stroke-width="2" d="M876.57 1c-120 19-355.3 114.9-336.5 346.5 23.5 289.5-336.5 106-386.5 279.5s646 190 669.5 503"/>
  <path stroke="#fff" stroke-opacity=".2" stroke-width="2" d="M906.57 1c-120 19-355.3 114.9-336.5 346.5 23.5 289.5-336.5 106-386.5 279.5s646 190 669.5 503"/>
</svg>