<svg xmlns="http://www.w3.org/2000/svg" fill="none" viewBox="0 0 1398 1447">
  <path stroke="#FD5F00" stroke-width="2" d="M585.394 107.347c-85.591 86.227-218.773 302.619-66.772 478.368 190.001 219.686-208.864 284.331-146.698 453.855 62.167 169.52 633.456-228.376 837.336 10.27"/>
  <path stroke="#FD5F00" stroke-width="2" d="M609.598 89.623c-85.591 86.227-218.773 302.619-66.772 478.368 190.001 219.686-208.864 284.331-146.698 453.849 62.167 169.53 633.452-228.371 837.342 10.28"/>
  <path stroke="#FD5F00" stroke-width="2" d="M633.802 71.898c-85.591 86.227-218.773 302.619-66.772 478.368 190.001 219.686-208.864 284.331-146.697 453.854 62.166 169.52 633.447-228.375 837.337 10.27"/>
  <path stroke="#FD5F00" stroke-width="2" d="M658.006 54.173c-85.591 86.228-218.773 302.62-66.772 478.369C781.235 752.228 382.37 816.873 444.537 986.395c62.166 169.525 633.453-228.375 837.333 10.271"/>
  <path stroke="#FD5F00" stroke-width="2" d="M682.211 36.449c-85.591 86.227-218.773 302.619-66.772 478.368C805.44 734.503 406.575 799.148 468.741 968.67c62.167 169.52 633.449-228.374 837.339 10.272"/>
  <path stroke="#FD5F00" stroke-width="2" d="M706.415 18.724c-85.591 86.228-218.773 302.62-66.772 478.369 190.001 219.686-208.864 284.331-146.698 453.853 62.167 169.524 633.455-228.375 837.335 10.271"/>
  <path stroke="#FD5F00" stroke-width="2" d="M730.619 1c-85.591 86.227-218.773 302.619-66.772 478.368 190.001 219.686-208.864 284.331-146.698 453.853 62.167 169.519 633.451-228.374 837.341 10.272"/>
</svg>