<svg xmlns="http://www.w3.org/2000/svg" xml:space="preserve" viewBox="0 0 1033.672 122.796">
  <g fill="#fff" aria-label="Fuel Notifier" font-family="Nexa Bold" font-size="119" font-weight="700" style="-inkscape-font-specification:NexaBold">
    <path d="M10.924-86.751h60.371v16.908h-38v16.154h35.734v16.908H33.294V0h-22.37ZM79.983-25.334v-39.744H100.9v6.508q0 5.287-.058 13.306-.058 7.96-.058 10.633 0 7.844.406 11.33.407 3.429 1.395 4.998 1.278 2.033 3.312 3.137 2.092 1.104 4.765 1.104 6.507 0 10.226-4.997 3.719-4.997 3.719-13.887v-32.132h20.802V0h-20.802v-9.413Q119.9-3.72 114.614-.988q-5.23 2.673-11.563 2.673-11.273 0-17.2-6.914-5.868-6.915-5.868-20.105zM216.923-32.713v5.926h-48.634q.755 7.322 5.287 10.982 4.533 3.661 12.667 3.661 6.566 0 13.423-1.918 6.914-1.975 14.177-5.926v16.037q-7.379 2.789-14.758 4.183-7.38 1.453-14.76 1.453-17.663 0-27.483-8.948-9.762-9.007-9.762-25.218 0-15.92 9.588-25.043 9.645-9.123 26.496-9.123 15.34 0 24.52 9.239 9.24 9.239 9.24 24.695zm-21.383-6.915q0-5.927-3.486-9.53-3.428-3.66-9.006-3.66-6.043 0-9.82 3.428-3.777 3.37-4.707 9.762zM221.338-90.412h20.802V0h-20.802zM290.829-86.751h24.985l31.552 59.5v-59.5h21.208V0H343.59l-31.551-59.5V0h-21.209zM420.462-51.772q-6.914 0-10.575 4.997-3.602 4.94-3.602 14.294 0 9.355 3.602 14.352 3.66 4.94 10.575 4.94 6.799 0 10.401-4.94 3.603-4.997 3.603-14.352t-3.603-14.294q-3.602-4.997-10.4-4.997zm0-14.875q16.793 0 26.206 9.064 9.471 9.065 9.471 25.102t-9.471 25.102q-9.413 9.064-26.206 9.064-16.85 0-26.38-9.064-9.47-9.065-9.47-25.102t9.47-25.102q9.53-9.064 26.38-9.064zM493.966-83.556v18.478h21.44v14.875h-21.44v27.6q0 4.532 1.801 6.16 1.801 1.568 7.147 1.568h10.691V0h-17.838q-12.318 0-17.49-5.113-5.113-5.172-5.113-17.49v-27.6h-10.343v-14.875h10.343v-18.478zM528.132-65.078h20.802V0h-20.802zm0-25.334h20.802v16.967h-20.802zM616.162-90.412h20.976v16.967h-20.976zm-4.3 0v13.655h-11.505q-4.358 0-6.043 1.627-1.685 1.568-1.685 5.52v4.532h44.509V0h-20.976v-50.203h-23.533V0h-20.976v-50.203h-10.227v-14.875h10.227v-4.532q0-10.634 5.927-15.689 5.926-5.113 18.36-5.113zM722.088-32.713v5.926h-48.634q.755 7.322 5.287 10.982 4.532 3.661 12.667 3.661 6.566 0 13.422-1.918 6.915-1.975 14.178-5.926v16.037q-7.38 2.789-14.759 4.183-7.379 1.453-14.758 1.453-17.664 0-27.484-8.948-9.762-9.007-9.762-25.218 0-15.92 9.587-25.043 9.646-9.123 26.497-9.123 15.34 0 24.52 9.239 9.239 9.239 9.239 24.695zm-21.383-6.915q0-5.927-3.486-9.53-3.429-3.66-9.007-3.66-6.043 0-9.82 3.428-3.776 3.37-4.706 9.762zM786.178-47.356q-2.73-1.278-5.462-1.86-2.673-.638-5.404-.638-8.018 0-12.376 5.17-4.3 5.114-4.3 14.702V0h-20.802v-65.078h20.802v10.691q4.01-6.391 9.18-9.297 5.23-2.963 12.493-2.963 1.046 0 2.267.116 1.22.058 3.544.349z" transform="matrix(1.33333 0 0 1.33333 -14.565 120.55)"/>
  </g>
</svg>