<svg xmlns="http://www.w3.org/2000/svg" xml:space="preserve" viewBox="0 0 780.748 89.669">
  <defs>
    <clipPath id="a" clipPathUnits="userSpaceOnUse">
      <path d="M0 1000h1000V0H0Z"/>
    </clipPath>
  </defs>
  <g clip-path="url(#a)" transform="matrix(1.33333 0 0 -1.33333 -276.293 711.501)">
    <path fill="#fff200" d="M226.356 491.122v12.42h20.746v-3.312c0-11.532-1.633-20.056-4.9-25.576-3.265-5.52-8.195-8.28-14.788-8.28-6.87 0-11.953 2.76-15.25 8.28-3.296 5.52-4.944 14.106-4.944 25.76 0 11.224 1.656 19.564 4.968 25.024 3.312 5.458 8.326 8.188 15.042 8.188 5.673 0 10.05-1.81 13.133-5.428 3.082-3.62 4.99-9.108 5.727-16.468h-8.234c-.644 3.188-1.733 5.488-3.266 6.9-1.564 1.41-3.956 2.116-7.176 2.116-4.324 0-7.452-1.58-9.384-4.738-1.932-3.16-2.898-8.358-2.898-15.594 0-7.544.943-12.926 2.829-16.146 1.886-3.22 5.037-4.83 9.453-4.83 7.36 0 11.27 3.894 11.73 11.684zM335.036 466.374c-10.427 0-15.839 7.604-16.238 22.815h7.452c.122-3.556.874-6.103 2.254-7.634 1.38-1.535 3.634-2.301 6.762-2.301 5.152 0 7.728 2.637 7.728 7.912 0 3.74-1.426 5.948-4.278 6.624l-9.292 2.3c-3.343.736-5.78 2.56-7.314 5.474-1.533 2.913-2.3 6.976-2.3 12.19 0 6.44 1.28 11.362 3.841 14.766 2.56 3.404 6.294 5.106 11.201 5.106 9.538 0 14.598-6.962 15.18-20.884h-7.452c-.215 2.882-.928 4.952-2.139 6.21-1.212 1.256-3.12 1.886-5.727 1.886-4.784 0-7.176-2.24-7.176-6.716 0-3.128 1.303-4.999 3.91-5.612l9.246-2.3c6.716-1.718 10.074-7.943 10.074-18.676 0-6.807-1.35-12.038-4.048-15.686-2.699-3.65-6.594-5.474-11.684-5.474M413.42 532.062h8.556l-13.294-47.932v-16.193h-7.912v15.825l-13.34 48.3h8.464l8.372-31.004h.92zM458.177 466.374c-6.747 0-11.707 2.744-14.881 8.233-3.174 5.489-4.761 14.061-4.761 25.715 0 11.346 1.617 19.734 4.853 25.162 3.235 5.428 8.257 8.142 15.065 8.142 11.622 0 17.878-8.68 18.768-26.036h-7.82c-.276 4.6-1.304 7.927-3.082 9.982-1.78 2.054-4.401 3.082-7.866 3.082-4.324 0-7.406-1.564-9.246-4.692-1.84-3.128-2.76-8.372-2.76-15.732 0-7.421.904-12.757 2.714-16.007 1.778-3.191 4.799-4.786 9.062-4.786 7.298 0 11.132 4.969 11.5 14.905h7.866c-.368-9.199-2.201-16.162-5.497-20.884-3.297-4.724-7.935-7.084-13.915-7.084M501.185 479.438c4.354 0 7.482 1.61 9.385 4.83 1.9 3.22 2.851 8.57 2.851 16.054 0 7.36-.95 12.572-2.85 15.64-1.871 3.128-5 4.692-9.385 4.692-4.384 0-7.513-1.564-9.384-4.692-1.87-3.128-2.805-8.341-2.805-15.64 0-7.484.949-12.833 2.852-16.054 1.9-3.22 5.012-4.83 9.337-4.83m0-13.063c-6.837 0-11.898 2.759-15.18 8.28-3.281 5.519-4.922 14.076-4.922 25.667 0 11.346 1.64 19.735 4.923 25.162 3.28 5.429 8.342 8.142 15.179 8.142 6.869 0 11.943-2.7 15.227-8.096 3.28-5.397 4.92-13.8 4.92-25.208 0-11.654-1.631-20.226-4.897-25.714-3.269-5.49-8.35-8.233-15.25-8.233M534.26 518.998v-37.996h9.844c4.385 0 7.55 1.532 9.498 4.6 1.947 3.066 2.922 8.064 2.922 14.996 0 6.5-1.02 11.192-3.06 14.076-2.04 2.882-5.343 4.324-9.913 4.324Zm10.027-51.061h-17.94v64.125h17.067c7.205 0 12.512-2.546 15.916-7.636 3.403-5.092 5.106-13.034 5.106-23.828 0-11.163-1.641-19.398-4.922-24.702-3.281-5.306-8.358-7.959-15.227-7.959M623.039 486.43h-19.918v11.5h19.918zM644.43 466.374c-10.428 0-15.84 7.604-16.238 22.815h7.45c.124-3.556.876-6.103 2.255-7.634 1.38-1.535 3.635-2.301 6.763-2.301 5.15 0 7.727 2.637 7.727 7.912 0 3.74-1.426 5.948-4.277 6.624l-9.291 2.3c-3.344.736-5.782 2.56-7.315 5.474-1.535 2.913-2.301 6.976-2.301 12.19 0 6.44 1.282 11.362 3.842 14.766s6.293 5.106 11.2 5.106c9.539 0 14.597-6.962 15.18-20.884h-7.452c-.215 2.882-.928 4.952-2.14 6.21-1.21 1.256-3.12 1.886-5.725 1.886-4.783 0-7.176-2.24-7.176-6.716 0-3.128 1.303-4.999 3.91-5.612l9.246-2.3c6.715-1.718 10.074-7.943 10.074-18.676 0-6.807-1.35-12.038-4.048-15.686-2.7-3.65-6.594-5.474-11.684-5.474M682.47 467.938h-7.911v51.152h-11.96v12.972h31.786V519.09H682.47ZM746.643 467.938h-7.912v51.152H726.77v12.972h31.787V519.09h-11.914ZM302.884 467.938h-7.912v51.152h-11.96v12.972h31.786V519.09h-11.914ZM777.049 466.374c-10.428 0-15.84 7.604-16.238 22.815h7.45c.124-3.556.876-6.103 2.255-7.634 1.38-1.535 3.635-2.301 6.763-2.301 5.15 0 7.727 2.637 7.727 7.912 0 3.74-1.426 5.948-4.277 6.624l-9.291 2.3c-3.344.736-5.782 2.56-7.315 5.474-1.535 2.913-2.301 6.976-2.301 12.19 0 6.44 1.282 11.362 3.842 14.766s6.293 5.106 11.2 5.106c9.539 0 14.597-6.962 15.18-20.884h-7.452c-.215 2.882-.928 4.952-2.14 6.21-1.21 1.256-3.12 1.886-5.725 1.886-4.783 0-7.176-2.24-7.176-6.716 0-3.128 1.303-4.999 3.91-5.612l9.246-2.3c6.715-1.718 10.074-7.943 10.074-18.676 0-6.807-1.35-12.038-4.048-15.686-2.7-3.65-6.594-5.474-11.684-5.474M258.694 481.555l-2.254-13.617 2.265 13.617Z"/>
    <path fill="#fff200" d="m258.705 481.555 6.245 37.535h4.462l4.094-24.656h-.003l2.137-12.88h.027l2.254-13.616h8.005L275.3 532.062h-16.239l-10.67-64.124h8.048l2.255 13.617ZM702.125 481.555l6.244 37.535h4.463l4.094-24.656h-.002l2.137-12.88h.027l2.254-13.616h8.004l-10.625 64.124h-16.239l-10.671-64.124h8.048l2.254 13.617ZM373.538 479.99h-9.706v15.088h9.614c4.201 0 6.302-2.484 6.302-7.452 0-5.092-2.07-7.636-6.21-7.636m12.558 15.777c-1.074 2.668-2.515 4.463-4.324 5.383v1.932c2.882 2.452 4.324 6.838 4.324 13.156 0 5.212-1.05 9.154-3.15 11.822-2.102 2.668-5.16 4.002-9.178 4.002h-17.802v-12.144h16.836c3.588 0 5.382-2.208 5.382-6.624 0-4.662-1.656-6.992-4.968-6.992h-17.25v-38.365h17.986c4.784 0 8.272 1.442 10.465 4.324 2.192 2.883 3.29 7.483 3.29 13.801 0 3.802-.538 7.037-1.61 9.705M596.773 532.062h-27.324v-12.377h27.324zM595.209 494.618v12.4h-25.76v-39.08h27.647v12.42h-19.735v14.26Z"/>
  </g>
</svg>