<svg xmlns="http://www.w3.org/2000/svg" fill="none" viewBox="0 0 1920 1340">
  <path fill="#005792" fill-opacity=".5" d="M296.5 1200c-125.881-5.44-315.5-67.5-315.5-67.5V44h2147.5s447.99 1211.76 0 1156c-84.93-10.57-123.23-60.22-208.5-67.5-116.24-9.92-174.35 65.65-291 67.5-125.22 1.99-188.27-66.98-313.5-67.5-127.72-.53-192.29 69.21-320 67.5-120.075-1.61-180.087-61.05-300-67.5-157.805-8.49-241.114 74.32-399 67.5Z"/>
  <path fill="#005792" d="M161.5 1156c-125.881-5.44-315.5-67.5-315.5-67.5V0h2147.5s447.99 1211.76 0 1156c-84.93-10.57-123.23-60.22-208.5-67.5-116.24-9.92-174.35 65.65-291 67.5-125.22 1.99-188.27-66.98-313.5-67.5-127.72-.53-192.294 69.21-320 67.5-120.075-1.61-180.087-61.05-300-67.5-157.805-8.49-241.114 74.32-399 67.5Z"/>
  <circle cx="1987" cy="1110" r="230" fill="#19689D"/>
  <circle cx="-39" r="230" fill="#19689D"/>
  <g stroke="#fff" stroke-opacity=".2" stroke-width="2" filter="url(#a)">
    <path d="M-132.5 1039c93-152 396.4-441.2 866-382 587 74 869 77 1029.5-147.5S1892 272 2045.5 269"/>
    <path d="M-132.5 1009c93-152 396.4-441.2 866-382 587 74 869 77 1029.5-147.5S1892 242 2045.5 239"/>
    <path d="M-132.5 979c93-152 396.4-441.2 866-382 587 74 869 77 1029.5-147.5S1892 212 2045.5 209"/>
    <path d="M-132.5 949c93-152 396.4-441.2 866-382 587 74 869 77 1029.5-147.5S1892 182 2045.5 179"/>
    <path d="M-132.5 919c93-152 396.4-441.2 866-382 587 74 869 77 1029.5-147.5S1892 152 2045.5 149"/>
    <path d="M-132.5 889c93-152 396.4-441.2 866-382 587 74 869 77 1029.5-147.5S1892 122 2045.5 119"/>
    <path d="M-132.5 859c93-152 396.4-441.2 866-382 587 74 869 77 1029.5-147.5S1892 92 2045.5 89"/>
  </g>
  <defs>
    <filter id="a" width="2198.87" height="971.522" x="-143.353" y="88" color-interpolation-filters="sRGB" filterUnits="userSpaceOnUse">
      <feFlood flood-opacity="0" result="BackgroundImageFix"/>
      <feColorMatrix in="SourceAlpha" result="hardAlpha" values="0 0 0 0 0 0 0 0 0 0 0 0 0 0 0 0 0 0 127 0"/>
      <feOffset dy="10"/>
      <feGaussianBlur stdDeviation="5"/>
      <feComposite in2="hardAlpha" operator="out"/>
      <feColorMatrix values="0 0 0 0 0 0 0 0 0 0 0 0 0 0 0 0 0 0 0.25 0"/>
      <feBlend in2="BackgroundImageFix" result="effect1_dropShadow_0:1"/>
      <feBlend in="SourceGraphic" in2="effect1_dropShadow_0:1" result="shape"/>
    </filter>
  </defs>
</svg>