<svg xmlns="http://www.w3.org/2000/svg" fill="none" viewBox="0 0 973 973">
  <path fill="#19689D" d="M116.391 322.732c125.67-203.55 609.765-215.94 725.7-17.7 115.05 198.24-136.29 605.341-377.895 611.536-242.49 6.195-473.475-390.286-347.805-593.836Z"/>
  <path fill="#fff" d="M484.919 888.39c-20.061 0-39.638-7.018-55.126-19.759l-95.648-78.701-10.662-116.417 314.182-64.731-6.497 119.071-4.581 83.984-93.77 62.119c-14.25 9.443-30.812 14.434-47.898 14.434Z"/>
  <path fill="#000" d="M635.846 610.895 629.47 727.76l-4.534 83.131-93.058 61.647a84.914 84.914 0 0 1-46.959 14.147c-19.246 0-38.419-6.517-54.043-19.37l-95.099-78.251-2.444-26.709-8.013-87.485 310.526-63.975Zm3.641-4.227-4.327.892-310.526 63.978-2.982.615.277 3.031 8.013 87.485 2.444 26.709.129 1.415 1.097.903 95.099 78.251a88.178 88.178 0 0 0 26.692 15.086 88.322 88.322 0 0 0 29.513 5.06c17.422 0 34.311-5.089 48.843-14.714l93.057-61.647 1.426-.946.092-1.708 4.534-83.131 6.376-116.864.243-4.415Z"/>
  <path fill="#BBBBBC" d="M635.846 610.896 629.47 727.76c-45.551 51.163-105.789 101.659-163.035 96.502-53.798-4.845-99.721-33.34-133.102-61.907l-8.013-87.485 310.526-63.974Z"/>
  <path fill="#fff" d="M663.922 584.69c-5.206 0-10.17-1.52-14.359-4.395-4.442-3.05-7.877-7.441-10.212-13.055-.893-2.148-1.625-4.907-2.175-8.198l-.024-.143c-2.342-14.148-1.71-38.762 1.878-73.172 2.676-25.646 6.086-47.456 6.123-47.673l.112-.715.591-.416c.112-.078 11.277-7.891 24.364-14.772 13.602-7.149 24.356-10.774 31.96-10.774.861 0 1.693.046 2.474.139 5.198.615 9.93 3.928 13.683 9.584 4.831 7.273 7.983 18.251 8.876 30.907.917 12.999-.645 27.062-4.4 39.596-8.95 29.867-10.647 33.834-18.796 52.898l-.421.982v.358l-.268.27a3335.365 3335.365 0 0 0-4.707 11.075c-3.629 8.592-8.924 15.692-15.312 20.533-6.018 4.561-12.722 6.971-19.387 6.971Z"/>
  <path fill="#000" d="M702.18 413.082c.786 0 1.545.042 2.275.129 4.901.582 9.112 3.785 12.464 8.835 9.43 14.201 12.072 43.004 4.264 69.076-9.12 30.433-10.564 33.612-19.287 54.018 0 .003 0 .003-.003.008a3334.803 3334.803 0 0 0-4.838 11.381c-7.441 17.624-20.907 26.461-33.131 26.461-9.608 0-18.448-5.459-22.999-16.4-.868-2.092-1.55-4.734-2.068-7.825v-.003c-5.655-33.692 7.979-120.438 7.979-120.438s11.036-7.75 24.179-14.658c10.574-5.566 22.515-10.584 31.165-10.584Zm.003-3.405v3.405-3.405c-7.887 0-18.906 3.69-32.754 10.968-13.184 6.933-24.094 14.566-24.551 14.887l-1.182.829-.224 1.428c-.034.219-3.454 22.073-6.133 47.76-3.592 34.446-4.227 59.168-1.887 73.488v.002l.046.283c.572 3.42 1.34 6.302 2.282 8.567 2.461 5.923 6.103 10.567 10.819 13.804 4.474 3.073 9.772 4.695 15.325 4.695 7.04 0 14.099-2.53 20.416-7.312 6.626-5.021 12.109-12.36 15.853-21.228 1.515-3.583 2.977-7.023 4.578-10.772l.528-.532.002-.708.285-.664c8.183-19.137 9.885-23.121 18.861-53.08 1.958-6.541 3.33-13.408 4.08-20.411.712-6.684.844-13.345.389-19.796-.915-12.945-4.165-24.215-9.159-31.729-4.038-6.084-9.19-9.657-14.899-10.333a24.214 24.214 0 0 0-2.675-.146Z"/>
  <path fill="#fff" d="M283.403 587.896c-8.185 0-14.164-3.821-18.273-11.681-3.398-6.497-5.164-14.809-7.12-25.001-1.401-7.317-3.094-14.33-5.66-23.452l-.063-.226v-.002c-1.236-4.396-2.594-8.986-4.026-13.844-2.824-9.569-6.026-20.413-9.669-34.254-4.221-16.018-5.315-30.796-3.078-41.61 2.163-10.453 7.344-16.666 14.214-17.045.228-.012.462-.019.695-.019 8.589 0 19.266 8.375 26.709 15.4 2.54 2.398 4.116 4.098 4.182 4.169l.267.289.114.377c.066.217 6.595 22.071 12.632 48.334 8.127 35.362 11.545 61.457 10.154 77.568-.937 10.866-4.196 17.256-9.689 18.998-4.184 1.328-8.015 1.999-11.389 1.999Z"/>
  <path fill="#000" d="M250.423 422.467c8.453 0 19.618 9.346 25.542 14.935 2.527 2.387 4.101 4.087 4.101 4.087s26.035 86.848 22.719 125.266c-.81 9.4-3.376 15.897-8.506 17.522-4.145 1.311-7.743 1.917-10.876 1.917-16.602 0-20.199-16.948-23.722-35.301-1.581-8.249-3.471-15.692-5.694-23.593v-.002c-3.651-12.997-8.202-27.227-13.751-48.295-4.481-17.003-5.086-31.01-3.055-40.832 2.016-9.742 6.631-15.359 12.639-15.69.202-.009.401-.014.603-.014Zm.003-3.406v3.406-3.406c-.265 0-.53.008-.788.022-7.704.423-13.457 7.13-15.79 18.4-1.114 5.388-1.445 11.659-.978 18.64.492 7.366 1.864 15.356 4.075 23.751 3.651 13.863 6.857 24.721 9.684 34.301 1.408 4.772 2.741 9.292 3.96 13.612l.121.438c2.552 9.073 4.235 16.044 5.629 23.31 1.983 10.331 3.778 18.765 7.283 25.469 2.092 4.001 4.59 6.964 7.638 9.061 3.411 2.345 7.495 3.534 12.146 3.534 3.549 0 7.553-.698 11.902-2.075 3.422-1.085 6.093-3.663 7.94-7.667 1.515-3.284 2.473-7.475 2.933-12.81.779-9.024.046-21.325-2.175-36.565-1.761-12.075-4.456-26.047-8.015-41.53-6.049-26.32-12.595-48.224-12.658-48.441l-.227-.756-.535-.579c-.068-.073-1.681-1.815-4.264-4.252-7.672-7.237-18.733-15.863-27.881-15.863Z"/>
  <path fill="#D2D3D4" d="M675.354 470.584s10.557-28.655 21.45-38.876c10.893-10.221 26.475-12.401 24.13 30.666-2.345 43.068-14.242 59.487-14.242 59.487s4.189-26.475 3.352-39.881c0 0-3.449 23.795-11.778 30.163-8.329 6.369-12.518 12.173-19.557 21.083-7.038 8.913-10.39 3.885-9.049-9.521 1.34-13.405-12.401-5.196-12.401-5.196v-29.158s15.585-19.103 25.638-17.762c10.054 1.34 13.238-2.849 18.935 3.352 5.697 6.2 5.748-7.877 2.622-15.751-3.126-7.876-18.626 3.81-22.826 8.546-4.206 4.738-7.074 4.94-6.274 2.848Z"/>
  <path fill="#D2D3D4" d="M716.918 422.044c-4.018-1.565-8.287-2.314-12.464-1.455-15.607 3.208-31.301 25.86-31.301 25.86s-1.105-11.372-2.141-22.79c11.54-6.064 24.7-11.487 33.442-10.45 4.902.581 9.115 3.787 12.464 8.835ZM701.89 545.145a3431.932 3431.932 0 0 0-4.838 11.382c-13.294 31.476-45.792 34.923-56.13 10.061-.868-2.092-1.549-4.734-2.068-7.826a85.557 85.557 0 0 1 5.048 3.62c22.695 17.434 43.649 1.143 57.988-17.237ZM262.175 457.062s-4.237-16.51-13.038-19.606c-8.801-3.097-11.739 15.235-6.142 31.131s10.379 39.905 10.379 39.905.489-20.671 1.956-32.569c1.467-11.897 6.845-18.861 6.845-18.861Z"/>
  <path fill="#D2D3D4" d="M279.942 464.347s-10.105 9.616-17.113 16.461c-7.008 6.845-13.624 18.229-3.145 28.837 10.479 10.608 21.888 26.58 22.376 27.884.489 1.304-2.118-73.182-2.118-73.182ZM275.964 437.4l-1.046 8.263s-23.388-28.086-37.737-7.494c2.016-9.743 6.631-15.359 12.639-15.69 8.519-.462 20.08 9.2 26.144 14.921ZM302.785 566.755c-.81 9.4-3.376 15.897-8.506 17.522-26.113 8.263-30.411-11.569-34.598-33.384-1.581-8.249-3.471-15.692-5.694-23.593 2.894 5.855 5.76 12.795 8.185 20.822 8.966 29.662 16.463 31.781 36.023 20.538 1.751-1.005 3.274-1.622 4.59-1.905Z"/>
  <path fill="#fff" d="M462.058 803.917c-17.589 0-34.889-3.445-51.416-10.234-22.619-9.294-43.113-24.694-60.909-45.77-27.077-32.062-45.493-61.17-56.303-88.988-9.329-24.001-11.423-42.751-13.272-59.289l-.233-2.083c-1.803-16.027-2.52-45.728-3.216-74.449-.73-30.151-1.481-61.328-3.479-77.224a746.765 746.765 0 0 0-.491-3.829c-2.442-18.915-8.161-63.214-4.116-106.064 2.28-24.155 7.363-44.415 15.111-60.222 9.423-19.226 22.938-32.189 40.17-38.521 17.322-6.366 41.049-11.81 68.616-15.743 28.098-4.009 58.066-6.128 86.668-6.128 37.536 0 70.82 3.674 96.251 10.626 29.944 8.185 48.804 20.654 56.048 37.064 6.378 14.444 12.143 32.97 17.132 55.062 3.984 17.635 7.489 37.582 10.418 59.282 4.984 36.933 6.595 66.563 6.609 66.857l.003.059v.058c-.005.333-.521 33.814-3.53 73.547-4.045 53.427-10.418 92.092-18.944 114.916-11.292 30.231-34.153 67.915-59.662 98.346-14.841 17.704-30.127 32.559-45.427 44.155-17.302 13.108-34.342 21.788-50.645 25.794-.705.195-10.304 2.778-25.383 2.778Z"/>
  <path fill="#000" d="M479.188 217.074c69.523 0 135.701 12.615 150.742 46.675 27.767 62.885 34.018 180.603 34.018 180.603s-1.943 133.213-22.364 187.891-86.378 150.501-154.571 167.244c0 0-9.669 2.725-24.95 2.725-26.967 0-71.409-8.485-111.027-55.4-62.067-73.501-65.743-116.785-69.418-149.453-3.676-32.666-2.773-120.455-6.695-151.696-3.921-31.24-25.971-179.059 49.572-206.826 34.622-12.724 95.855-21.763 154.693-21.763Zm.009-3.406v3.406l-.004-3.406c-28.687 0-58.738 2.126-86.914 6.145-27.684 3.95-51.532 9.423-68.963 15.831-17.658 6.489-31.489 19.737-41.112 39.37-7.838 15.991-12.978 36.451-15.276 60.81-4.063 43.038 1.673 87.467 4.123 106.441.182 1.418.348 2.698.489 3.824 1.985 15.811 2.736 46.947 3.464 77.054.695 28.757 1.413 58.494 3.225 74.598l.234 2.079c1.861 16.644 3.967 35.51 13.376 59.718 10.881 27.996 29.392 57.261 56.59 89.47 17.976 21.287 38.689 36.845 61.564 46.247a138.623 138.623 0 0 0 28.312 8.251 135.744 135.744 0 0 0 23.751 2.111c15.118 0 24.879-2.578 25.813-2.836 16.522-4.065 33.761-12.841 51.241-26.086 15.402-11.671 30.781-26.614 45.704-44.418 13.131-15.663 25.755-33.454 36.507-51.445 10.015-16.755 18.12-33.145 23.444-47.399 4.741-12.693 8.874-30.56 12.287-53.107 2.715-17.934 4.989-38.888 6.76-62.277 3.011-39.781 3.53-73.315 3.534-73.648l.003-.115-.007-.114c-.015-.297-1.628-29.995-6.622-66.996-2.936-21.749-6.451-41.744-10.445-59.431-5.016-22.199-10.815-40.829-17.237-55.373-7.463-16.901-26.691-29.691-57.154-38.02-25.57-6.989-59.005-10.684-96.687-10.684Z"/>
  <path fill="#D2D3D4" d="M293.279 478.602s42.455-1.535 58.568 2.685c16.112 4.221-23.275-2.046-33.377 20.589 0 0 8.952-.832 23.659 5.084 14.707 5.916 35.933 3.293 53.451 2.685 17.519-.608 20.657 23.469 16.989 38.874-3.668 15.403-18.888 29.338-27.507 38.691-8.618 9.353-26.772 24.571-34.291 48.227 0 0 15.403-30.99 44.009-46.575 0 0 4.6 16.181 17.456 20.924 12.856 4.744 13.23 1.623 24.089 8.237 10.859 6.614 18.056 3.495 23.444-.625 5.388-4.121 11.752-7.989 22.737-8.611 10.983-.625 25.461-8.487 23.34-24.464 0 0 16.908 7.458 30.666 19.132 13.758 11.673 32.102 19.596 32.727 33.561 0 0 3.753-8.548-11.883-21.053-15.633-12.508-28.35-28.56-42.943-38.356-14.593-9.796-22.306-18.137-26.891-41.9-4.586-23.765 7.504-28.356 33.979-26.059 26.476 2.296 46.904-15.768 66.291-12.574 0 0-13.921-7.932-18.417-9.973-4.495-2.043 10.404-.482 21.217 5.286 0 0-17.3-15.712-50.942-14.583-33.641 1.129 32.318-21.1 53.345-14.851l-9.733-5.886-46.64 2.162-55.6 23.187s-3.211 27.392 3.586 56.346c6.796 28.954 17.92 37.592 15.626 51.029-2.291 13.437-12.486 11.277-16.848 10.334-4.361-.944-14.383-.998-23.045 9.131-8.662 10.129-18.577 7.242-27.392-.104-8.816-7.347-14.406-6.084-19.521-5.038-5.116 1.046-18.156-15.743-6.823-33.165 11.335-17.421 14.483-45.969 15.638-59.404 1.156-13.435-4.198-27.392-4.198-27.392l-54.471-17.738-47.651-3.359-16.373 10.496-6.271 5.05Z"/>
  <path fill="#D2D3D4" d="M629.928 263.751c-27.77-62.882-229.896-52.676-305.44-24.909-75.543 27.77-53.49 175.585-49.569 206.826 3.921 31.241 3.021 119.03 6.696 151.698 3.676 32.666 7.349 75.95 69.417 149.45 62.07 73.503 135.976 52.679 135.976 52.679 68.193-16.746 134.15-112.569 154.574-167.247C662 577.57 663.944 444.357 663.944 444.357s-6.249-117.723-34.016-180.606Zm-26.5 422.158c-31.401 50.633-88.888 93.306-134.437 100.827-45.549 7.517-116.741-41.296-148.302-99.195-31.564-57.896-31.187-145.446-31.941-166.487-.752-21.041-9.297-40.956 14.327-53.732 0 0-13.539-49.224-9.798-86.045 3.736-36.825 14.758-62.965 27.375-72.14l-5.877 12.043s21.076-24.517 61.65-13.333c40.571 11.183 57.572-9.318 90.005-1.719 32.432 7.599 52.364-24.661 82.328-21.793 29.963 2.865 41.646 10.53 50.851 36.298 9.202 25.77 11.476 49.409 22.829 71.642 0 0 25.208 50.087 26.755 112.162 1.552 62.073-14.366 130.837-45.765 181.472Z"/>
  <path fill="#000" d="M387.186 307.546s-61.465-26.84-77.855 28.684c0 0 0-30.732 36.06-37.697 0 0-39.747 4.508-47.942 31.552 0 0 .408-23.356 35.648-35.852 0 0-35.444 1.844-37.492 24.585-2.048 22.741-4.712 65.972-10.039 86.458-5.327 20.489-4.916 66.996-4.508 72.528 0 0-12.906-9.63-13.111-20.693-.204-11.063-1.228-16.799-1.228-16.799l-2.253 2.663 1.024-4.507-3.072 4.507s-2.868-10.858-1.639-18.234c1.228-7.375-.307-22.126-.307-22.126l-1.948 6.147s-2.664-13.111-6.967-23.765c-4.303-10.655-7.991-19.874-6.76-25.814l-3.279 9.015s1.435-13.318 6.147-29.502c4.712-16.183 9.63-43.434 10.654-54.497 1.024-11.063 15.982-54.087 24.177-71.093 8.195-17.005 34.215-50.605 78.674-68.839s98.137-37.697 136.245-24.586c38.107 13.112 50.605 9.22 79.698 28.273 29.093 19.054 62.45 48.988 67.2 68.723 0 0 2.377-11.513 0-20.102 0 0 6.945 10.781 4.751 27.227 0 0 8.772-9.136 8.039-18.823 0 0 3.839 16.994-4.203 33.258 0 0 20.649-2.924 28.689 13.704 8.039 16.629 10.963 19.37 10.963 19.37l-7.127-3.106s3.838 33.257 2.192 60.669c-1.645 27.409 5.482 69.073 4.021 86.252 0 0-14.07 22.111-19.188 48.059l-17.543 8.406s-2.559-38.74-19.005-67.064c-16.446-28.324-27.41-68.526-30.518-84.242-3.107-15.717-11.696-31.43-27.41-35.087-15.716-3.653-38.01-4.385-46.597-14.254l5.483 8.039-13.157-8.589 7.674 9.502-16.628-7.492 5.665 5.482-10.781-4.385 4.933 12.425-5.665-4.568 3.106 4.385-13.887-5.483 3.839 5.666-8.04-4.568 3.839 5.665-12.426-2.924 5.605 6.577-4.325-1.644 5.115 5.665-10.416-3.653 9.626 10.233-15.473-7.857 6.395 5.301-3.107-.183 4.644 5.116-14.145-5.665 5.301 7.492s-29.786-10.599-47.877-10.599l12.243 6.213-11.146-1.28 4.751 4.204s-30.701-6.811-44.223-7.427l19.552 5.415-9.686-1.279 8.589 4.02-17.36-2.923 6.03 3.838-14.07-2.924 5.831 4.807Z"/>
  <path fill="#000" d="M424.508 487.848c.034 4.038-3.805 7-7.736 6.071-6.864-1.627-19.389-4.775-34.466-9.382-23.067-7.047-36.949-10.251-36.949-10.251l4.699 3.513s-52.114-7.572-63.432 8.66c0 0 0-20.718 13.457-27.551l-8.115 2.35s14.95-13.668 34.172-15.592l-7.69 2.775s12.601-3.204 24.775 1.708c12.175 4.911 34.814 13.242 46.775 16.872 11.961 3.631 20.718 7.881 27.55 10.775 4.464 1.895 6.923 5.651 6.96 10.052ZM478.278 488.013s1.289-9.017-1.104-16.008c0 0 2.024.367 3.313 4.415 0 0 7.913-11.224 17.85-18.032 9.936-6.809 22.079-5.89 32.016-11.594 9.937-5.704 23.737-5.152 23.737-5.152l-12.146-2.208s11.961-2.024 20.426 0l-7.361-2.761s49.681.732 65.875 41.123c0 0-37.906-20.883-68.636-11.865l4.048-3.588s-19.689 6.349-35.697 11.501c-16.008 5.152-33.121 16.745-33.121 16.745l2.576-4.785c0 .003-13.8 10.307-11.776 2.209Z"/>
  <path fill="#000" d="M408.001 504.243s-13.598-5.6-18.696-9.2c-5.099-3.6-7.699-10.598 15.398 3.199 0 0-11.2-9.3-25.196-10.798-13.997-1.501-37.495-.9-42.893 1.099-5.4 2-10.199 9.599-10.199 9.599l7.198-1.7s12.797 13.597 32.294 11.897c19.496-1.7 28.494-1.1 36.694-.8 8.2.299 8.314-2.061 5.4-3.296Z"/>
  <path fill="#fff" d="M397.701 506.444c-5.4-.102-16.198-.302-30.593.499a55.527 55.527 0 0 1-6.035.017c-3.666-.195-6.977-.762-9.9-1.603a33.552 33.552 0 0 1-4.535-1.652c-3.699-1.671-6.485-3.831-8.229-6.157-3.867-5.149-2.114-6.424 5.882-7.854.632-.114 1.309-.229 2.019-.348a.512.512 0 0 1 .092-.012c5.637-.915 15.014-.827 23.34.367.696.097 1.384.207 2.063.321 5.225.886 9.852 2.233 12.6 4.072 7.4 4.948 15.296 7.852 15.296 7.852 3.632 1.504 3.401 4.595-2 4.498Z"/>
  <path fill="#000" d="M372.542 494.603c0 5.249-2.775 9.844-6.94 12.403a55.522 55.522 0 0 1-4.529-.049c-3.666-.194-6.976-.761-9.9-1.603a33.402 33.402 0 0 1-4.534-1.651 14.486 14.486 0 0 1-3.197-9.1c0-1.725.3-3.377.849-4.912.633-.114 1.309-.228 2.019-.347.029-.008.059-.01.093-.013 5.636-.914 15.013-.827 23.34.368.695.097 1.384.206 2.062.321a14.49 14.49 0 0 1 .737 4.583Z"/>
  <path fill="#6D6E71" d="M370.723 494.603c0 5.969-4.109 10.977-9.65 12.354-3.666-.194-6.976-.761-9.9-1.603a12.714 12.714 0 0 1-5.911-10.751c0-1.878.406-3.666 1.141-5.272 5.636-.914 15.013-.827 23.339.368.633 1.508.981 3.167.981 4.904Z"/>
  <path fill="#000" d="M359.633 499.156a4.553 4.553 0 1 0 0-9.107 4.553 4.553 0 0 0 0 9.107ZM492.827 502.479s4.743-5.741 10.859-10.608c6.115-4.868-1.747-3.369-11.732 6.988 0 0 8.985-13.853 25.711-16.849 16.726-2.995 51.173-4.493 67.648 7.864 0 0-14.602-7.989-32.201-7.49 0 0 9.36 2.995 15.103 5.867 5.743 2.873 7.988 4.992 7.988 4.992h-4.118s-15.977 10.983-32.951 12.98c-16.974 1.997-36.071-1.499-41.688-.75-5.616.75-6.2-1.187-4.619-2.994Z"/>
  <path fill="#fff" d="M569.38 491.577s-14.741 9.927-29.056 12.843a43.11 43.11 0 0 1-3.695.586c-3.826.426-7.339.621-10.535.667-9.64.139-16.371-1.056-19.823-1.182-4.6-.173-9.808-1.36-7.628-3.581 0 0 6.998-7.421 13.683-12.194 1.119-.8 2.714-1.647 4.721-2.433.912-.36 1.905-.705 2.98-1.029 5.695-1.724 13.595-2.846 22.773-1.911a63.07 63.07 0 0 1 3.038.384c7.286 1.075 15.274 3.471 23.542 7.85Z"/>
  <path fill="#000" d="M547.683 491.119c0 5.605-2.936 10.526-7.359 13.304-1.238.248-2.471.45-3.695.586-3.826.426-7.339.62-10.535.666-5.753-2.328-9.808-7.969-9.808-14.553 0-1.688.265-3.311.762-4.836.912-.36 1.904-.706 2.979-1.029 5.695-1.725 13.596-2.846 22.773-1.912.998.102 2.01.229 3.039.384a15.636 15.636 0 0 1 1.844 7.39Z"/>
  <path fill="#6D6E71" d="M545.303 491.119c0 7.356-5.962 13.318-13.318 13.318-7.355 0-13.318-5.962-13.318-13.318 0-2.104.489-4.094 1.36-5.865 5.695-1.724 13.595-2.846 22.773-1.911a13.268 13.268 0 0 1 2.503 7.776Z"/>
  <path fill="#000" d="M531 497.072a5.627 5.627 0 1 0 0-11.253 5.627 5.627 0 0 0 0 11.253ZM411.423 606.833s-17.635-7.419-10.861-31.077c0 0-10 21.291 10.861 31.077ZM500.567 574.464s9.57 21.936-8.924 30.647c0 0 20-6.344 8.924-30.647ZM440.288 615.987s-6.95-3.863-11.937-7.582c-4.984-3.722-11.654-5.196-12.216-1.265-.562 3.931 8.144-.633 15.797 4.563 7.653 5.196 12.357 8.706 16.711 8.285 4.354-.421 7.161-2.106 14.114-9.056 6.952-6.95 13.972-5.675 18.465-5.821 4.493-.146 4.072-2.114 1.333-2.814-2.739-.703-10.321-1.686-16.429 4.213-6.108 5.899-13.622 12.637-17.694 12.216-4.072-.421-8.144-2.739-8.144-2.739Z"/>
  <path fill="#D1D3D4" d="M372.297 645.926s35.762-8.285 52.478-5.378c16.719 2.907 28.93 4.215 44.775.292 15.846-3.926 38.378-1.963 50.881-.91s24.714-1.562 28.93 1.491c4.215 3.053-9.013 15.991-16.427 31.109-7.414 15.118-31.401 34.454-67.018 37.942-35.616 3.489-64.836-4.797-77.628-23.987-12.793-19.19-24.568-39.978-15.991-40.559Z"/>
  <path fill="#58595B" d="M538.75 642.727s-13.23 31.11-51.61 41.285c-38.376 10.177-70.504-4.216-82.136-10.903-11.63-6.687-24.5-21.773-26.169-25.001 0 0 5.31-.35 13.469-.35 9.233 0 22.123.455 35.089 2.384 24.422 3.634 52.478 1.045 71.087-2.384 12.072-2.226 25.434-3.681 33.325-4.425 4.274-.409 6.945-.606 6.945-.606Z"/>
  <path fill="#fff" d="M531.808 643.331c-.927 5.186-3.413 11.629-9.667 16.419-12.333 9.44-35.627 20.518-68.803 21.131-33.18.613-47.266-10.411-53.596-13.984-4.93-2.783-6.835-14.221-7.433-19.142 9.233 0 22.123.455 35.088 2.384 24.423 3.634 52.479 1.046 71.088-2.384 12.07-2.223 25.432-3.68 33.323-4.424Z"/>
  <path fill="#000" d="M678.162 466.816s18.158-39.837 31.87-39.652c13.712.185 8.893 61.146 0 83.379 0 0 4.632-29.091-.37-48.176 0 0 3.883 14.101 4.294 23.517 0 0 2.778-23.989-1.518-41.247-4.298-17.257-20.355-3.216-34.276 22.179Z"/>
  <path fill="#000" d="M682.314 476.006s-13.087 3.024-11.009 18.339c2.077 15.315 1.038 32.972-.207 37.543-1.246 4.571 10.593-3.323 13.709-12.257 3.116-8.933 27.872-7.724 16.826-39.711 0 0 3.369 22.868-8.485 28.794-11.853 5.928-11.252 12.527-14.986 14.548-3.737 2.022-2.389-18.859-3.87-24.247-1.482-5.385-1.195-15.308 8.022-23.009ZM259.684 454.68s-4.637-13.184-12.46-15.356c-7.822-2.172-2.753 19.122-.868 31.581 1.885 12.459 5.505 31.581 5.505 31.581l.579-27.526-2.172 10.141s-2.173-20.282-3.912-28.83c-1.739-8.548.28-16.188 13.328-1.591ZM264.028 483.8s-13.038 13.474-3.332 22.165c9.706 8.691 12.459 11.88 14.198 22.021 0 0 .725-11.296-5.504-18.832-6.23-7.534-10.577-13.33-5.362-25.354Z"/>
</svg>