<svg xmlns="http://www.w3.org/2000/svg" xml:space="preserve" viewBox="0 0 720.271 185.492">
  <defs>
    <clipPath id="a" clipPathUnits="userSpaceOnUse">
      <path d="M0 1000h1000V0H0Z"/>
    </clipPath>
  </defs>
  <g clip-path="url(#a)" transform="matrix(1.33333 0 0 -1.33333 -306.531 759.412)">
    <path fill="#ffffff" d="M246.86 455.456c2.904 0 4.994.691 6.27 2.078 1.276 1.387 1.914 3.322 1.914 5.81 0 1.098-.165 2.098-.495 3.001a6.11 6.11 0 0 1-1.502 2.326c-.67.65-1.517 1.15-2.54 1.502-1.024.351-2.24.53-3.647.53h-5.808v-15.247Zm0 23.594c3.388 0 6.297-.4 8.73-1.203 2.43-.805 4.431-1.91 6.004-3.319 1.574-1.408 2.734-3.068 3.482-4.982.748-1.914 1.122-3.983 1.122-6.203 0-2.399-.385-4.6-1.155-6.6a13.222 13.222 0 0 0-3.53-5.148c-1.585-1.432-3.592-2.547-6.023-3.35-2.432-.805-5.309-1.205-8.63-1.205h-5.808v-16.07h-11.154v48.08zM291.938 439.78c1.495 0 2.832.248 4.01.742a8.12 8.12 0 0 1 2.986 2.13c.813.923 1.435 2.05 1.863 3.382.43 1.33.644 2.842.644 4.537v28.48h11.155v-28.48c0-2.949-.478-5.654-1.435-8.117-.957-2.465-2.327-4.588-4.11-6.369-1.781-1.784-3.948-3.168-6.5-4.159-2.553-.99-5.424-1.486-8.613-1.486-3.212 0-6.094.496-8.646 1.486-2.552.991-4.72 2.375-6.501 4.16-1.782 1.78-3.146 3.903-4.092 6.368-.947 2.463-1.42 5.168-1.42 8.117v28.48h11.154v-28.447c0-1.695.215-3.207.644-4.537.428-1.332 1.05-2.465 1.864-3.4a8.015 8.015 0 0 1 2.987-2.145c1.176-.494 2.514-.742 4.01-.742M340.315 439.384c1.474 0 2.678.187 3.613.56.935.376 1.666.86 2.195 1.454a4.85 4.85 0 0 1 1.088 2.013 8.8 8.8 0 0 1 .297 2.276c0 .88-.115 1.672-.346 2.377a3.932 3.932 0 0 1-1.188 1.78c-.56.485-1.304.86-2.227 1.124-.924.264-2.09.395-3.498.395h-7.788v-11.98Zm-7.854 31.318V458.82h5.808c1.232 0 2.343.088 3.333.264.99.176 1.831.485 2.525.924a4.246 4.246 0 0 1 1.584 1.816c.362.77.543 1.737.543 2.903 0 1.144-.143 2.095-.428 2.855-.286.758-.727 1.369-1.32 1.832-.594.46-1.348.79-2.26.989-.914.199-1.997.298-3.25.298zm6.534 8.348c3.321 0 6.148-.31 8.48-.924 2.332-.615 4.236-1.484 5.71-2.607 1.474-1.121 2.546-2.487 3.217-4.092.671-1.606 1.007-3.398 1.007-5.38 0-1.077-.155-2.116-.462-3.116a8.998 8.998 0 0 0-1.452-2.807c-.66-.87-1.507-1.666-2.54-2.392-1.036-.725-2.279-1.352-3.73-1.881 3.167-.77 5.511-2.012 7.028-3.73 1.52-1.716 2.278-3.936 2.278-6.665 0-2.045-.397-3.95-1.189-5.71-.792-1.758-1.952-3.294-3.48-4.602-1.53-1.31-3.416-2.332-5.66-3.07-2.244-.737-4.808-1.104-7.69-1.104h-19.206v48.08zM394.468 439.88v-8.91h-28.975v48.08h11.155v-39.17ZM411.363 430.97h-11.22v48.08h11.22zM453.074 443.411c.265 0 .528-.05.792-.148.265-.1.517-.272.76-.512l4.422-4.654a18.368 18.368 0 0 0-7.278-5.725c-2.915-1.287-6.363-1.932-10.344-1.932-3.653 0-6.925.623-9.819 1.866-2.892 1.242-5.345 2.96-7.358 5.148-2.013 2.187-3.559 4.785-4.637 7.787-1.078 3.004-1.617 6.266-1.617 9.785 0 3.586.583 6.881 1.75 9.883 1.165 3.004 2.805 5.594 4.916 7.772 2.112 2.177 4.642 3.873 7.59 5.082 2.948 1.211 6.193 1.816 9.735 1.816 1.804 0 3.503-.16 5.1-.479a25.02 25.02 0 0 0 4.47-1.32 20.583 20.583 0 0 0 3.83-2.029 20.24 20.24 0 0 0 3.1-2.574l-3.762-5.049a4.726 4.726 0 0 0-.858-.842c-.33-.254-.792-.38-1.386-.38-.396 0-.77.087-1.122.265-.352.176-.725.39-1.122.642-.395.252-.83.528-1.304.827-.472.296-1.034.57-1.682.824a13.93 13.93 0 0 1-2.278.642c-.869.176-1.886.266-3.052.266-1.848 0-3.536-.342-5.066-1.024a11.037 11.037 0 0 1-3.96-2.986c-1.11-1.31-1.968-2.916-2.573-4.818-.605-1.904-.908-4.076-.908-6.518 0-2.465.336-4.652 1.007-6.566.671-1.914 1.584-3.528 2.74-4.836 1.153-1.309 2.501-2.305 4.041-2.986 1.54-.682 3.19-1.022 4.95-1.022 1.012 0 1.936.05 2.773.15.835.096 1.616.262 2.342.493.726.23 1.408.54 2.046.923a12.97 12.97 0 0 1 1.948 1.47c.263.218.548.4.857.544.308.143.627.215.957.215M521.151 479.05v-48.08h-11.22v20.328h-19.536V430.97h-11.22v48.08h11.22v-20.096h19.536v20.096ZM566.23 455.026c0 2.375-.31 4.516-.924 6.418-.617 1.902-1.502 3.516-2.656 4.834-1.156 1.32-2.57 2.332-4.241 3.037-1.673.703-3.575 1.057-5.71 1.057-2.156 0-4.074-.354-5.758-1.057-1.683-.705-3.102-1.717-4.257-3.037-1.155-1.318-2.04-2.932-2.656-4.834-.616-1.902-.925-4.043-.925-6.418 0-2.398.309-4.549.925-6.45.616-1.905 1.5-3.517 2.656-4.835 1.155-1.32 2.574-2.328 4.257-3.02 1.684-.693 3.602-1.04 5.759-1.04 2.134 0 4.036.347 5.709 1.04 1.672.692 3.085 1.7 4.24 3.02 1.155 1.318 2.04 2.93 2.657 4.834.615 1.902.923 4.053.923 6.451m11.418 0c0-3.477-.6-6.71-1.799-9.7-1.198-2.993-2.886-5.595-5.064-7.806-2.18-2.21-4.802-3.943-7.87-5.199-3.07-1.254-6.475-1.88-10.214-1.88-3.742 0-7.152.626-10.23 1.88-3.082 1.256-5.716 2.988-7.905 5.2-2.19 2.21-3.883 4.812-5.082 7.804-1.199 2.99-1.799 6.224-1.799 9.701 0 3.477.6 6.71 1.8 9.701 1.198 2.992 2.891 5.588 5.081 7.79 2.19 2.198 4.823 3.925 7.904 5.18 3.08 1.255 6.49 1.882 10.23 1.882s7.144-.633 10.214-1.899c3.068-1.265 5.691-2.998 7.87-5.197 2.178-2.2 3.866-4.797 5.066-7.789 1.198-2.992 1.798-6.215 1.798-9.668M613.188 439.88v-8.91h-28.975v48.08h11.155v-39.17ZM630.083 430.97h-11.219v48.08h11.219zM671.598 455.026c0 2.375-.31 4.521-.925 6.436-.615 1.914-1.501 3.535-2.656 4.867-1.154 1.33-2.568 2.353-4.24 3.068-1.672.715-3.575 1.072-5.71 1.072h-7.457v-30.92h7.458c2.134 0 4.037.358 5.709 1.073 1.672.715 3.086 1.738 4.24 3.068 1.155 1.332 2.04 2.953 2.656 4.867.616 1.914.925 4.071.925 6.47m11.418 0c0-3.478-.6-6.685-1.8-9.62-1.198-2.938-2.887-5.479-5.064-7.623-2.178-2.145-4.802-3.819-7.87-5.016-3.07-1.199-6.474-1.799-10.214-1.799H639.39v48.08h18.678c3.74 0 7.144-.605 10.214-1.814 3.068-1.21 5.692-2.883 7.87-5.016 2.177-2.134 3.866-4.67 5.065-7.607 1.199-2.938 1.799-6.133 1.799-9.586M752.677 449.251V430.97h-11.153v18.281L724.1 479.05h9.834c.968 0 1.732-.225 2.293-.676.56-.451 1.028-1.029 1.402-1.732l6.798-13.993c.572-1.099 1.09-2.128 1.552-3.085.462-.958.868-1.897 1.22-2.821.33.946.71 1.897 1.139 2.854.429.957.929 1.974 1.5 3.052l6.734 13.993c.153.285.34.572.56.857.22.285.479.545.776.775.297.231.638.418 1.023.561.385.145.808.215 1.27.215h9.9zM392.553 568.92a3.255 3.255 0 0 1-.973-.197 2.237 2.237 0 0 1-.776-.512c-.23-.231-.456-.556-.676-.974l-12.343-24.288a32.88 32.88 0 0 1-1.302-2.64 65.178 65.178 0 0 1-1.172-2.837 64.01 64.01 0 0 1-1.172 2.77c-.407.904-.83 1.772-1.271 2.609l-12.375 24.386c-.22.418-.445.743-.675.974-.232.23-.491.4-.776.512a3.255 3.255 0 0 1-.973.197 21.36 21.36 0 0 1-1.271.033h-8.515v-48.081h9.834v27.654c0 .638-.021 1.337-.065 2.096-.045.759-.1 1.534-.165 2.326l12.77-24.783c.397-.77.93-1.352 1.6-1.75.672-.394 1.437-.593 2.295-.593h1.518c.858 0 1.622.199 2.294.594.67.397 1.204.979 1.6 1.749l12.77 24.717a32.8 32.8 0 0 1-.181-2.276 49.006 49.006 0 0 1-.05-2.08v-27.654h9.835v48.08h-8.514c-.484 0-.908-.01-1.271-.032M440.93 568.74a3.79 3.79 0 0 1-1.022-.563 4.313 4.313 0 0 1-.776-.775 6.243 6.243 0 0 1-.56-.858l-6.733-13.992a51.407 51.407 0 0 1-1.501-3.052 35.837 35.837 0 0 1-1.138-2.855 35.896 35.896 0 0 1-1.222 2.822c-.462.957-.98 1.985-1.551 3.085l-6.798 13.992a5.502 5.502 0 0 1-1.402 1.732c-.562.451-1.326.677-2.294.677h-9.834l17.425-29.799v-18.282h11.153v18.282l17.424 29.8h-9.9c-.461 0-.885-.072-1.27-.215M500.445 543.51c0-.77.022-1.59.065-2.458a40.39 40.39 0 0 1 .232-2.69l-22.868 28.876c-.309.374-.584.67-.825.89a3.01 3.01 0 0 1-.759.512 3.166 3.166 0 0 1-.892.248c-.33.043-.737.065-1.22.065h-5.875v-48.081h9.834v25.774c0 .704-.016 1.457-.049 2.26a41.832 41.832 0 0 1-.182 2.492l22.671-28.677c.572-.683 1.15-1.161 1.732-1.436.583-.275 1.304-.413 2.162-.413h5.808v48.08h-9.834ZM550.538 568.953h-30.953v-8.313h30.953zM599.278 568.953v-8.844h13.53v-39.237h11.154v39.237h13.531v8.844ZM519.585 520.872h30.953v8.519h-30.953z"/>
    <path fill="#fd5f00" d="M570.61 549.141h-51.025v-8.083h51.025z"/>
    <path fill="#fd5f00" d="m579.174 545.1-3.8 5.829-.021-.034-11.55 17.79h-9.568v-.41l15.574-23.174-16.036-23.856v-.273h9.766z"/>
    <path fill="#ffffff" d="m579.965 544.1-4.59-7.551 10.924-16.577h9.768v.273zM580.19 545.992l15.63 23.158v.41h-9.57l-10.628-16.373 4.57-7.192Z"/>
    <path fill="#ffffff" d="M712.483 479.05h-11.418l-18.612-48.08h8.712c.924 0 1.7.246 2.327.742.627.494 1.06 1.05 1.304 1.666l.127.379 11.818 35.393 11.208-33.395.805-2.377a4.292 4.292 0 0 1 1.352-1.732c.594-.451 1.375-.676 2.343-.676h8.646z"/>
  </g>
</svg>